<?xml version="1.0" standalone="no"?><!DOCTYPE svg PUBLIC "-//W3C//DTD SVG 1.1//EN" "http://www.w3.org/Graphics/SVG/1.1/DTD/svg11.dtd"><svg t="1766481722332" class="icon" viewBox="0 0 1024 1024" version="1.1" xmlns="http://www.w3.org/2000/svg" p-id="24282" xmlns:xlink="http://www.w3.org/1999/xlink" width="200" height="200"><path d="M962.986667 266.666667l-218.666667 6.613333s-22.613333 55.893333-38.613333 73.386667-34.346667 33.28-37.546667 42.666666-16 104.96-36.48 130.346667-171.52 87.466667-236.16 106.026667-132.693333 72.96-132.693333 72.96 4.906667-18.133333 11.306666-27.306667l-34.346666-4.693333 26.666666-17.706667-44.16-6.186667 29.866667-20.906666L213.333333 594.773333s144-32 171.306667-58.24 16.213333-49.706667 16.213333-49.706666l-61.866666 61.653333s-1.28-13.653333 4.053333-28.8-42.026667 39.893333-42.026667 39.893333v-27.733333l-58.88 52.053333 7.04-45.866666-57.813333 31.146666s9.6-40.96 18.133333-49.493333l-40.106666 20.266667s8.106667-38.826667 14.293333-44.373334l-41.6 15.36 17.28-40.746666-29.013333 11.306666s0-26.88 8.96-35.413333l-23.04 3.84s7.04-27.733333 18.986666-38.186667l-30.506666 4.906667s1.493333-24.746667 22.826666-42.88l-34.133333-4.906667s11.946667-25.173333 26.666667-34.986666l-32.426667-2.986667s6.826667-20.48 23.466667-31.36l-31.573334-2.986667s7.253333-21.333333 21.973334-28.586666l-23.04-4.693334s7.04-20.266667 20.693333-27.093333l-17.92-6.4s6.826667-19.84 24.533333-27.52l-23.893333-10.026667s8.533333-24.32 36.693333-29.653333l-20.266666-20.693333s21.333333-18.56 46.933333-16L119.04 98.773333s25.813333-14.08 48.426667-9.6L141.653333 60.586667s18.773333-11.306667 35.84-6.826667L158.506667 11.306667s168.32 76.373333 229.12 136.533333 109.226667 141.013333 118.186666 149.973333 41.386667 6.4 47.786667-0.64 39.466667-94.72 94.933333-110.08 90.88 25.813333 99.2 39.253334 214.826667 40.106667 214.826667 40.106666z" fill="#061616" p-id="24283"></path><path d="M962.986667 266.666667l-223.146667-0.64s-22.613333 55.893333-38.613333 73.386666-34.346667 33.28-37.546667 42.666667-16 104.96-36.48 130.346667-171.52 87.466667-236.16 106.026666-128.426667 80.213333-128.426667 80.213334 0.426667-25.6 6.826667-34.56l-29.866667 2.56 22.186667-25.173334-39.68 1.28 25.386667-28.16-34.346667-19.626666s139.733333-39.466667 167.04-65.493334 16.213333-49.706667 16.213333-49.706666l-57.386666 61.653333s-5.76-13.653333-0.426667-28.8-37.76 39.893333-37.76 39.893333l-4.693333-27.733333-54.4 52.053333 2.773333-45.866666-57.813333 31.146666s9.6-40.96 18.133333-49.493333l-40.106667 20.266667s8.106667-38.826667 14.293334-44.373334l-41.6 15.36 17.28-40.746666-29.013334 11.306666s0-26.88 8.96-35.413333l-23.04 3.84s7.04-27.733333 18.986667-38.186667l-30.506667 4.906667s1.493333-24.746667 22.826667-42.88l-34.133333-4.906667s11.946667-25.173333 26.666666-34.986666l-32.426666-2.986667s6.826667-20.48 23.466666-31.36l-31.573333-2.986667s7.253333-21.333333 21.973333-28.586666l-23.04-4.693334s7.04-20.266667 20.693334-27.093333l-17.92-6.4s6.826667-19.84 24.533333-27.52l-23.893333-10.026667s8.533333-24.32 36.693333-29.653333l-20.266667-20.693333s21.333333-18.56 46.933334-16L114.346667 91.733333s25.813333-14.08 48.426666-9.6L136.96 53.546667s18.773333-11.306667 35.84-6.826667L153.813333 4.266667s168.32 76.373333 229.12 136.533333 109.226667 141.013333 118.186667 149.973333 41.386667 6.4 47.786667-0.64 39.466667-94.72 94.933333-110.08 90.88 25.813333 99.2 39.253334 219.306667 47.573333 219.306667 47.573333z" fill="#008080" p-id="24284"></path><path d="M189.226667 49.28s77.226667 43.733333 95.786666 58.24 60.373333 44.586667 60.373334 44.586667l5.76 1.066666V145.066667s-96.64-70.826667-162.133334-95.786667zM189.653333 90.453333s50.986667 27.733333 78.293334 43.733334c36.693333 21.546667 83.413333 57.386667 83.413333 57.386666h8.106667l-1.066667-7.893333s-107.733333-74.666667-168.533333-93.226667zM176.64 123.946667s51.413333 18.773333 81.066667 35.626666c37.76 21.333333 85.546667 63.573333 85.546666 63.573334h8.106667l-1.066667-7.893334s-95.786667-78.506667-173.44-91.093333zM151.893333 152.533333s63.36 17.92 93.013334 34.56c37.76 21.333333 85.546667 63.573333 85.546666 63.573334h8.106667l-1.066667-7.893334s-42.453333-36.266667-94.933333-62.72c-29.013333-14.72-59.733333-21.76-90.666667-27.52zM132.48 189.44s72.32 13.653333 101.973333 30.506667c37.76 21.333333 85.546667 63.573333 85.546667 63.573333h8.106667l-1.066667-7.893333s-42.453333-36.266667-94.933333-62.72c-29.013333-14.72-68.906667-17.493333-99.626667-23.466667zM120.746667 220.16c26.666667 4.693333 66.986667 9.813333 97.28 25.6 37.76 19.84 98.773333 64.213333 98.773333 64.213333h8.106667l-1.066667-7.893333s-50.986667-36.266667-103.253333-62.72c-29.013333-14.72-73.173333-20.48-99.626667-19.2zM113.92 254.72c26.453333 0.64 58.026667-2.773333 88.106667 13.013333 37.76 19.84 99.626667 60.8 99.626666 60.8h8.106667l-1.066667-7.893333s-51.626667-32.64-104.106666-59.306667c-29.013333-14.72-64.853333-10.666667-90.666667-6.613333zM126.933333 284.16c19.626667 0.64 39.466667-0.426667 63.573334 7.68 30.08 10.026667 80.213333 41.6 80.213333 41.6h5.973333l-0.853333-5.973333s-41.813333-25.6-83.413333-40.32c-22.826667-8.106667-46.293333-5.973333-65.28-2.773334zM142.08 318.72c19.626667 0.64 39.466667-0.426667 63.573333 7.68 30.08 10.026667 42.026667 24.106667 42.026667 24.106667h5.973333l-0.853333-5.973334s-3.626667-8.32-45.44-23.04c-22.826667-8.106667-46.293333-5.973333-65.28-2.773333zM145.706667 351.36c15.786667 0.213333 31.146667-1.706667 50.56 2.986667 24.32 5.76 33.92 13.866667 33.92 13.866666h4.906666l-0.64-3.413333s-2.346667-5.973333-35.84-14.506667c-18.346667-4.693333-37.333333-0.64-52.693333 1.066667zM139.946667 393.386667c15.36-3.84 29.653333-9.813333 49.493333-10.666667 24.96-0.853333 36.266667 4.266667 36.266667 4.266667l4.693333-1.28-1.493333-2.986667s-3.84-5.333333-38.4-4.48c-18.986667 0.426667-36.053333 9.386667-50.346667 15.146667zM145.066667 422.826667c15.36-3.84 29.653333-8.32 49.493333-10.666667 24.533333-2.773333 68.48-5.333333 68.48-5.333333l1.92-1.28-1.493333-2.986667s-35.413333 2.56-67.84 5.12c-18.986667 1.493333-36.053333 9.386667-50.346667 15.146667zM165.333333 450.986667c15.36-3.84 29.653333-18.133333 49.493334-20.266667 24.533333-2.773333 62.506667-4.693333 62.506666-4.693333l1.92-1.28-1.493333-2.986667s-29.226667 1.92-61.866667 4.48c-18.986667 1.493333-36.053333 19.2-50.346666 24.96zM189.653333 472.96c15.36-4.693333 28.8-16.426667 48-21.12 24.32-5.973333 57.6-10.88 57.6-10.88l1.92-1.28-1.493333-2.986667s-26.24 5.333333-56.96 10.666667c-18.773333 3.2-34.56 19.84-49.066667 25.6zM220.8 499.84c12.586667-6.186667 22.4-18.56 38.4-24.96 20.266667-8.106667 48.64-16 48.64-16l1.493333-1.493333-1.92-2.773334s-22.186667 7.68-48 15.786667c-15.786667 4.906667-26.88 22.613333-38.4 29.653333zM249.386667 514.773333c11.52-5.546667 20.053333-17.706667 34.773333-23.466666 18.56-7.253333 44.586667-14.293333 44.586667-14.293334l1.28-1.28-1.92-2.773333s-20.266667 6.826667-44.16 14.08c-14.506667 4.48-24.32 21.333333-34.773334 27.946667zM300.8 512.213333c6.4-3.413333 10.666667-9.813333 19.2-12.8 10.666667-3.84 24.106667-11.093333 24.106667-11.093333l0.64-1.066667-1.706667-2.986666s-9.813333 8.106667-23.68 10.88c-8.533333 1.706667-12.8 12.586667-18.346667 17.066666zM666.453333 377.6l-11.946666-7.04-10.88-2.133333-0.64-7.68h-18.986667l-2.773333-6.613334-8.32-5.12 5.12-8.533333-18.773334-2.986667-3.413333-4.906666-4.906667-12.8 3.413334-5.76 12.586666-12.16 15.786667-13.44 0.426667-11.946667-8.746667-12.16 14.72-10.453333v-12.586667l18.773333-1.706667h14.08l36.48-5.76h20.906667l22.826667-16.853333 3.2 4.266667-24.32 17.92h-22.186667l-36.48 5.76h-14.293333l-13.653334 1.28v10.453333l-12.586666 8.96 6.613333 9.173333-0.426667 16.213334-17.493333 14.933333-12.373333 11.733333-1.493334 2.56 3.84 10.026667 1.706667 2.346667 24.32 3.84-6.4 10.88 5.546667 3.2 1.92 4.906666h20.266666l0.853334 8.533334 8.106666 1.92 12.16 7.253333-2.56 4.48z" fill="#FFFFFF" p-id="24285"></path><path d="M737.706667 271.786667l-15.573334-17.066667c-4.053333-10.24-4.053333-10.666667-4.053333-11.306667 0-0.64-0.64-6.613333-0.64-6.613333l5.333333-0.64s0.64 6.826667 0.64 7.253333c0 0 1.92 4.48 3.413334 8.746667l13.013333 13.653333-2.346667 5.973334z" fill="#FFFFFF" p-id="24286"></path><path d="M678.4 228.906667m-16.64 0a16.64 16.64 0 1 0 33.28 0 16.64 16.64 0 1 0-33.28 0Z" fill="#2FC76B" p-id="24287"></path><path d="M678.4 248.106667c-10.666667 0-19.2-8.533333-19.2-19.2s8.533333-19.2 19.2-19.2 19.2 8.533333 19.2 19.2-8.533333 19.2-19.2 19.2z m0-33.066667c-7.68 0-13.866667 6.186667-13.866667 13.866667s6.186667 13.866667 13.866667 13.866666 13.866667-6.186667 13.866667-13.866666-6.186667-13.866667-13.866667-13.866667z" fill="#FFFFFF" p-id="24288"></path><path d="M86.186667 737.066667h98.773333v10.88H161.28c-3.84 0-6.613333 1.066667-8.32 2.986666-1.706667 1.92-2.773333 5.12-2.773333 9.386667v168.106667c0 4.053333 1.066667 6.826667 3.413333 8.533333 2.346667 1.706667 6.826667 2.56 13.653333 2.56h29.866667c16 0 29.013333-5.333333 39.04-16s17.493333-29.013333 21.973333-55.253333h10.026667l-4.906667 81.92h-177.066666v-10.88h17.493333c5.973333 0 10.24-1.066667 12.586667-3.413334s3.626667-5.973333 3.626666-10.88v-166.4c0-3.626667-1.066667-6.186667-2.986666-8.106666-1.92-1.92-4.906667-2.773333-8.96-2.773334H86.4v-10.88z" p-id="24289"></path><path d="M247.04 730.24h7.04l55.893333 142.72c2.346667 5.76 6.826667 8.746667 13.866667 8.746667h4.906667v7.893333h-62.293334v-7.893333h4.906667c6.4 0 11.093333-0.64 13.653333-2.133334 1.92-1.066667 2.773333-2.56 2.773334-4.48 0-1.28-0.213333-2.56-0.64-3.84l-12.8-33.066666H212.693333l-7.253333 18.986666c-1.92 5.12-2.773333 8.96-2.773333 11.946667 0 3.413333 1.493333 6.4 4.693333 8.96s7.893333 3.626667 13.866667 3.626667h5.333333v7.893333H170.026667v-7.893333c5.973333 0 10.88-1.28 14.293333-4.053334s6.826667-7.68 9.6-14.933333l52.906667-132.266667z m-2.986667 30.08l-27.946666 69.546667h55.04l-27.093334-69.546667zM317.44 739.84h188.8l4.48 79.36h-10.88c-7.04-46.72-25.813333-69.973333-56.106667-69.973333-6.186667 0-10.24 0.853333-12.586666 2.773333-2.346667 1.92-3.413333 5.12-3.413334 9.386667v168.106666c0 3.413333 1.066667 5.973333 3.2 7.466667 2.133333 1.706667 5.76 2.346667 10.88 2.346667h23.466667v10.666666h-107.946667v-10.666666H384c3.626667 0 6.186667-0.853333 8.106667-2.346667a8.106667 8.106667 0 0 0 2.773333-6.4v-170.453333c0-3.626667-1.28-6.4-3.626667-8.106667s-6.186667-2.773333-11.733333-2.773333c-15.146667 0-27.946667 6.4-37.973333 19.413333-8.32 10.666667-14.506667 27.52-18.133334 50.56h-11.52l5.12-79.36z" p-id="24290"></path><path d="M476.586667 811.52h176l4.266666 70.826667h-10.026666c-4.053333-22.4-10.24-37.973333-18.986667-46.72-8.746667-8.96-19.84-13.226667-33.706667-13.226667h-43.52c-3.413333 0-6.186667 0.853333-7.893333 2.773333-1.706667 1.706667-2.773333 4.48-2.773333 8.32v74.666667h18.986666c10.24 0 18.346667-3.413333 24.746667-10.453333s9.813333-17.493333 10.24-31.786667h10.453333v97.066667h-10.453333c-0.426667-16-4.053333-27.52-10.453333-34.56s-15.146667-10.453333-26.24-10.453334h-17.28v83.413334c0 2.986667 1.066667 5.333333 3.2 7.04 2.133333 1.706667 5.76 2.346667 10.666666 2.346666h34.346667c37.333333 0 58.666667-22.4 64.426667-67.413333h10.88l-3.84 78.08h-183.04v-10.666667h15.146666c5.973333 0 10.026667-1.066667 12.373334-2.986666 2.346667-1.92 3.626667-4.693333 3.626666-8.533334v-166.186666c0-3.626667-1.066667-6.4-3.2-8.32-2.133333-1.706667-5.333333-2.773333-9.813333-2.773334h-18.133333v-10.666666z" p-id="24291"></path><path d="M647.466667 737.28h93.013333v10.88h-10.88c-7.893333 0-13.226667 0.64-15.786667 1.92s-3.84 2.773333-3.84 4.693333c0 1.493333 1.493333 4.266667 4.48 8.106667l43.52 59.733333 33.28-47.36c4.266667-6.186667 6.4-11.093333 6.4-14.72s-1.92-6.613333-5.546666-8.96c-3.626667-2.133333-10.666667-3.413333-20.693334-3.413333v-10.88h82.133334v10.88c-8.96 0-16 1.493333-21.12 4.266667-7.04 3.84-13.44 9.813333-19.413334 18.133333l-46.72 63.786667 71.68 96.853333c2.133333 2.773333 4.48 4.693333 7.466667 5.973333 2.986667 1.28 8.106667 1.92 15.573333 1.92v10.88h-89.813333v-10.88h12.373333c5.973333 0 10.24-0.64 12.586667-2.133333 2.346667-1.28 3.413333-3.2 3.413333-5.333333s-1.493333-5.333333-4.693333-9.6l-46.506667-63.146667-34.346666 46.08c-5.333333 7.253333-8.106667 13.653333-8.106667 19.2 0 4.693333 1.493333 8.32 4.693333 10.88s7.893333 3.84 13.866667 3.84h8.96v10.88h-86.4v-10.88c8.96-0.213333 17.066667-2.56 24.106667-6.613333 7.04-4.266667 14.08-10.88 20.906666-20.266667l48-65.066667-62.08-83.2c-4.906667-6.613333-9.173333-10.88-13.013333-12.8s-9.813333-2.773333-18.133333-2.986666v-10.88z" p-id="24292"></path></svg>