<svg xmlns="http://www.w3.org/2000/svg" width="262" height="52" fill="none" viewBox="0 0 262 52"><path fill="black" d="M59.7998 52H0L29.9004 0L59.7998 52ZM127.624 13.5488C130.886 13.5488 133.822 14.2586 136.432 15.6787C139.041 17.099 141.115 19.2077 142.653 22.0039C144.191 24.8001 144.984 28.2179 145.03 32.2568V34.3203H118.676C118.862 37.2496 119.725 39.5575 121.263 41.2441C122.847 42.8864 124.968 43.707 127.624 43.707C129.302 43.707 130.84 43.2637 132.238 42.376C133.636 41.4884 134.685 40.2901 135.384 38.7812L144.541 39.4463C143.423 42.775 141.326 45.4383 138.25 47.4355C135.174 49.4328 131.632 50.4316 127.624 50.4316C123.942 50.4316 120.727 49.6769 117.978 48.168C115.228 46.6589 113.084 44.5062 111.546 41.71C110.008 38.9138 109.239 35.674 109.239 31.9902C109.239 28.3063 110.008 25.0657 111.546 22.2695C113.084 19.4735 115.228 17.3205 117.978 15.8115C120.727 14.3026 123.943 13.5488 127.624 13.5488ZM190.172 13.5488C193.154 13.5488 195.881 14.1034 198.351 15.2129C200.867 16.2781 202.918 17.8093 204.503 19.8066C206.087 21.8038 207.043 24.1561 207.369 26.8633L198.142 27.3301C197.769 25.1997 196.836 23.5353 195.345 22.3369C193.9 21.0942 192.176 20.4727 190.172 20.4727C187.283 20.4727 185.045 21.4715 183.461 23.4688C181.877 25.466 181.084 28.3066 181.084 31.9902C181.084 35.6739 181.877 38.5145 183.461 40.5117C185.045 42.509 187.283 43.5078 190.172 43.5078C192.269 43.5078 194.063 42.8863 195.555 41.6436C197.046 40.3564 197.955 38.5368 198.281 36.1846L207.578 36.584C207.252 39.3801 206.296 41.8212 204.712 43.9072C203.127 45.9932 201.077 47.6136 198.561 48.7676C196.044 49.8771 193.248 50.4316 190.172 50.4316C186.49 50.4316 183.275 49.677 180.525 48.168C177.776 46.6589 175.632 44.5062 174.094 41.71C172.556 38.9138 171.787 35.674 171.787 31.9902C171.787 28.3063 172.556 25.0657 174.094 22.2695C175.632 19.4734 177.776 17.3205 180.525 15.8115C183.275 14.3026 186.49 13.5488 190.172 13.5488ZM228.825 13.5488C232.087 13.5488 235.024 14.2584 237.634 15.6787C240.244 17.099 242.318 19.2077 243.855 22.0039C245.393 24.8001 246.186 28.218 246.232 32.2568V34.3203H219.878C220.064 37.2495 220.926 39.5576 222.464 41.2441C224.048 42.8863 226.169 43.7069 228.825 43.707C230.503 43.707 232.041 43.2637 233.439 42.376C234.837 41.4884 235.886 40.2901 236.585 38.7812L245.743 39.4463C244.625 42.7751 242.527 45.4383 239.451 47.4355C236.375 49.4328 232.833 50.4316 228.825 50.4316C225.144 50.4316 221.928 49.677 219.179 48.168C216.429 46.6589 214.285 44.5061 212.747 41.71C211.209 38.9139 210.44 35.6739 210.44 31.9902C210.44 28.3063 211.209 25.0657 212.747 22.2695C214.285 19.4734 216.429 17.3206 219.179 15.8115C221.928 14.3026 225.144 13.5489 228.825 13.5488ZM86.8994 36.6924L104.137 2.36328H114.945L89.957 49.6328H83.8428L58.8545 2.36328H69.6631L86.8994 36.6924ZM158.521 21.1377C159.111 19.2151 159.933 17.7216 160.985 16.6582C162.512 15.1163 164.64 14.3457 167.369 14.3457H170.769V21.6143H167.3C165.357 21.6143 163.761 21.8786 162.512 22.4072C161.309 22.9359 160.384 23.7736 159.736 24.9189C159.135 26.0643 158.835 27.5183 158.835 29.2803V49.6328H149.953V14.3457H158.279L158.521 21.1377ZM260.248 49.6328H251.3V2.36328H260.248V49.6328ZM127.624 20.2725C125.154 20.2725 123.15 21.0051 121.612 22.4697C120.074 23.9344 119.119 25.9981 118.746 28.6611H135.803C135.477 25.7765 134.568 23.6684 133.077 22.3369C131.586 20.961 129.768 20.2725 127.624 20.2725ZM228.825 20.2725C226.355 20.2726 224.351 21.0051 222.813 22.4697C221.276 23.9344 220.32 25.9982 219.947 28.6611H237.005C236.679 25.7764 235.769 23.6684 234.278 22.3369C232.787 20.961 230.969 20.2725 228.825 20.2725Z" style="fill:black;fill-opacity:1;"/></svg>