<?xml version="1.0" standalone="no"?><!DOCTYPE svg PUBLIC "-//W3C//DTD SVG 1.1//EN" "http://www.w3.org/Graphics/SVG/1.1/DTD/svg11.dtd"><svg t="1766481838449" class="icon" viewBox="0 0 1024 1024" version="1.1" xmlns="http://www.w3.org/2000/svg" p-id="33298" xmlns:xlink="http://www.w3.org/1999/xlink" width="200" height="200"><path d="M426.666667 565.333333a32.213333 32.213333 0 0 0-32 32 32.213333 32.213333 0 0 0 32 32h170.666666a32.213333 32.213333 0 0 0 32-32 32.213333 32.213333 0 0 0-32-32z" p-id="33299" fill="#1296db"></path><path d="M512 458.666667a32.213333 32.213333 0 0 0 32-32 32.213333 32.213333 0 0 0-32-32h-85.333333a32.213333 32.213333 0 0 0-32 32 32.213333 32.213333 0 0 0 32 32z" p-id="33300" fill="#1296db"></path><path d="M690.773333 938.24H333.653333c-155.221333 0-247.893333-92.672-247.893333-247.893333V333.226667C85.76 178.005333 178.432 85.333333 333.653333 85.333333h357.12C845.994667 85.333333 938.666667 178.005333 938.666667 333.226667v357.12c0 155.221333-92.672 247.893333-247.893334 247.893333zM384 256a113.493333 113.493333 0 0 0-128 128v256a113.493333 113.493333 0 0 0 128 128h256a113.493333 113.493333 0 0 0 128-128v-128a42.666667 42.666667 0 0 0-42.666667-42.666667 42.666667 42.666667 0 0 1-42.666666-42.666666V384a113.450667 113.450667 0 0 0-128-128z" p-id="33301" fill="#1296db"></path></svg>