<?xml version="1.0" standalone="no"?><!DOCTYPE svg PUBLIC "-//W3C//DTD SVG 1.1//EN" "http://www.w3.org/Graphics/SVG/1.1/DTD/svg11.dtd"><svg t="1766481120922" class="icon" viewBox="0 0 1024 1024" version="1.1" xmlns="http://www.w3.org/2000/svg" p-id="1656" xmlns:xlink="http://www.w3.org/1999/xlink" width="200" height="200"><path d="M0 0m256 0l512 0q256 0 256 256l0 512q0 256-256 256l-512 0q-256 0-256-256l0-512q0-256 256-256Z" fill="#F86F6F" p-id="1657"></path><path d="M513.1264 780.2368S93.952 499.712 276.4032 298.496a114.176 114.176 0 0 1 41.728-29.1328c79.5648-32.0768 139.776 0.7168 170.3424 25.2416a35.84 35.84 0 0 0 44.9024 0c31.1552-24.9856 93.056-58.624 174.976-23.3728 12.6208 5.4784 24.2176 13.1584 34.048 22.784 194.8672 190.5408-229.2736 486.2208-229.2736 486.2208" fill="#FFFFFF" p-id="1658"></path><path d="M358.4 513.536h18.56c4.9408 0 8.9344-0.4352 11.9808-1.3568a24.8832 24.8832 0 0 0 8.9344-5.0432l5.376-5.4016c2.2528-2.2528 4.608-4.8384 7.0912-7.7568l7.6032-8.96 7.2448-8.576c4.5056-5.632 8.5504-7.8336 12.16-6.5792 3.584 1.2288 6.2976 3.8656 8.0896 7.936l14.848 40.8064c7.6288-21.376 14.3872-40.704 20.224-58.0352 2.4832-7.424 4.9664-14.6688 7.424-21.76 2.4832-7.0656 4.736-13.5936 6.7584-19.5584l5.0432-14.848a81.152 81.152 0 0 0 2.3808-7.5776c1.1264-3.84 2.816-6.912 5.0432-9.2928a10.112 10.112 0 0 1 7.424-3.5328c2.9184 0 5.9648 0.8448 9.1136 2.5344 3.1488 1.6896 5.1712 5.12 6.0672 10.2912 0.2304 1.3312 0.6912 4.9408 1.3568 10.7776 0.6656 5.8624 1.5616 13.1584 2.688 21.9392 1.1264 8.7808 2.304 18.5088 3.5584 29.184 1.2288 10.6752 2.5088 21.5296 3.8656 32.5376 2.9184 25.856 6.2976 54.784 10.1376 86.7072l13.4912-44.1856c1.5616-5.632 3.2-11.1872 4.864-16.6912l4.736-15.2064c1.4592-4.608 2.6368-8.4736 3.5584-11.6224 0.896-3.1488 1.5616-5.1712 2.0224-6.0672a22.5792 22.5792 0 0 1 4.0448-8.1152 12.1856 12.1856 0 0 1 6.4-3.712c5.1712-1.3312 9.0624-0.6144 11.648 2.2016 2.56 2.816 3.8656 5.6832 3.8656 8.6016 0 2.4832-0.2304 4.608-0.6656 6.4a9.8816 9.8816 0 0 0-0.3328 2.3808l12.1344 33.0496a10.1888 10.1888 0 0 0 1.024-1.3568c0.6656-1.1008 1.792-3.4816 3.3536-7.0656a13.7472 13.7472 0 0 1 8.96-7.6032c4.1472-1.2288 8.1408-1.7408 11.9552-1.5104 2.4832 0.2304 4.9664 0.3328 7.424 0.3328h15.5392v25.6512a24.576 24.576 0 0 1-4.0704 0.3328h-8.7552a13.1584 13.1584 0 0 0-8.7808 2.5344 20.864 20.864 0 0 0-5.7344 5.5552c-0.896 1.792-2.4832 5.2736-4.7104 10.4704a192.0768 192.0768 0 0 0-6.0928 15.8464c-0.896 2.688-2.3552 4.5056-4.352 5.376a13.44 13.44 0 0 1-12.3392-0.6656 8.9088 8.9088 0 0 1-3.8656-4.0448c-0.6912-1.5616-1.792-4.3264-3.3792-8.2688-1.5872-3.9168-3.1488-7.936-4.736-11.9552-2.0224-4.736-4.0448-9.8048-6.0672-15.1808-5.8368 18.6624-11.136 35.84-15.872 51.6096-1.9968 6.7328-4.0192 13.3632-6.0416 19.8912a4855.4496 4855.4496 0 0 0-9.8048 32.0512c-1.1008 3.84-1.792 6.4-2.0224 7.7568a24.7552 24.7552 0 0 1-6.4 12.8 14.5152 14.5152 0 0 1-11.4688 4.4032c-4.7104-0.4352-8.0896-2.4576-10.112-6.0672a31.1808 31.1808 0 0 1-3.712-12.4928c0-1.1008-0.2816-4.608-0.8448-10.4448-0.5632-5.8368-1.28-13.2608-2.2016-22.272-0.896-8.9856-1.8432-18.9952-2.8672-30.0288-1.024-11.008-2.0736-22.272-3.2-33.7152-2.4832-26.7776-5.376-56.6784-8.7808-89.7536-6.2976 18.432-11.904 34.9952-16.8704 49.6128-2.0224 6.2976-4.096 12.4672-6.2208 18.5344a1834.4192 1834.4192 0 0 0-9.9584 29.0304l-2.048 6.0672c-1.1008 2.9184-2.6112 5.632-4.5312 8.0896-1.92 2.4832-4.8896 3.584-8.96 3.3792-4.0192 0-7.0656-1.408-9.088-4.224a33.3312 33.3312 0 0 1-4.736-9.6c-0.6656-1.792-1.8944-5.2992-3.6864-10.4704-1.792-5.1712-3.712-10.4448-5.7344-15.872a640.9728 640.9728 0 0 1-7.7824-20.8896 121.1136 121.1136 0 0 1-5.0432 6.0672c-1.5872 1.792-3.2768 3.7632-5.0688 5.888-1.792 2.1504-3.584 4.224-5.376 6.2464-3.6096 4.2752-6.9888 7.1936-10.1376 8.7808a19.84 19.84 0 0 1-11.136 1.6896 71.8848 71.8848 0 0 0-8.96-0.1792c-3.6864 0.128-7.4496 0.1792-11.264 0.1792-4.2752 0.2304-9.0112 0.3328-14.1824 0.3328V513.536z" fill="#F86F6F" p-id="1659"></path></svg>